<svg fill="none" height="66" viewBox="0 0 211 66" width="211" xmlns="http://www.w3.org/2000/svg"><g fill="#000"><path d="m205.789 13.4362c-2.569 0-4.652-2.0291-4.652-4.53357 0-2.49067 2.084-4.51982 4.652-4.51982 2.558 0 4.643 2.02915 4.643 4.51982-.001 2.50567-2.085 4.53357-4.643 4.53357zm0-8.34481c-2.175 0-3.926 1.70935-3.926 3.81249 0 2.11692 1.752 3.82632 3.926 3.82632 2.164 0 3.921-1.7094 3.921-3.82632 0-2.10314-1.757-3.81249-3.921-3.81249zm1.191 6.42731-1.643-2.1533h-.569v2.1533h-.926v-5.20832h1.928c1.39 0 2.003.44396 2.003 1.46982 0 .85907-.532 1.43219-1.438 1.51998l1.79 2.21852zm-.465-4.38938c-.171-.07901-.442-.1204-.883-.1204h-.864v1.72817h.864c.826 0 1.22-.29597 1.22-.93306 0-.30099-.133-.57815-.337-.67471z"/><path d="m101.527 23.2871-8.7263 26.0442-8.8098-26.0442h-11.3799l4.1062 10.8556-5.0848 15.1886-8.8098-26.0442h-11.3851l15.9509 42.1432h8.4789l6.3995-16.6308 6.2951 16.6308h8.4789l15.8642-42.1432z"/><path d="m170.947 65.4284c-9.01 0-12.799-6.1502-12.799-12.2126v-48.82518l10.943.00001v48.13167c0 2.5408 1.097 3.8539 3.878 3.8539h4.206v9.0522z"/><path d="m195.232 65.4284c-9.01 0-12.798-6.1502-12.798-12.2126v-48.82518l10.942.00001v48.13167c0 2.5408 1.097 3.8539 3.878 3.8539h4.207v9.0522z"/><path d="m146.202 56.3691h-12.134c-6.177 0-9.647-4.0382-9.647-9.5563h27.07v-4.7782c0-11.7786-6.423-20.5073-18.69-20.5073-11.426 0-19.207 7.906-19.207 21.9081 0 17.3745 9.984 21.9909 20.389 21.9909h12.219zm-20.764-21.5018c1.188-2.5508 3.642-4.4445 7.363-4.4445s6.177 1.8949 7.363 4.4445c.678 1.5664.931 2.7177 1.01 4.6114h-16.751c.085-1.8937.337-3.0437 1.015-4.6114z"/><path d="m36.7286 38.4774c-2.7761-2.7026-8.6836-6.3884-18.0574-11.2694-2.2958-1.1889-3.7187-2.1446-4.611-3.1002-.9515-1.0171-1.3751-2.0906-1.3751-3.4789 0-1.757.9361-3.8639 2.5675-5.1206 1.7202-1.3256 4.1049-2.0555 6.7161-2.0555h9.2077l-.0128-9.06217h-8.9193c-6.984 0-10.6292.93807-14.99811 3.86015-1.88378 1.30679-3.40316 2.78292-4.39462 4.26772-1.44985 2.2123-2.316414 5.5821-2.316414 8.3788 0 3.2531.893604 5.7488 2.898414 8.094 2.05631 2.4054 5.42728 4.8446 10.92923 7.9097l9.3519 5.1745c4.0212 2.1884 5.5174 3.9956 5.5174 6.6668 0 1.8774-.927 4.0985-2.5443 5.4366-1.7035 1.4109-4.0637 2.1872-6.6428 2.1872h-19.504693v9.0635h19.319293c3.2731 0 6.2552-.3738 8.8614-1.1124 2.561-.7249 4.7654-1.8022 6.5513-3.2005 1.7795-1.3934 3.147-3.4877 4.065-5.4805.9348-2.0267 1.4087-4.3455 1.4087-6.8939 0-3.9793-1.5014-7.8169-4.0174-10.2649z"/><path d="m53.1255 8.0236c-.4558-4.59506-4.6508-7.9623562-9.3725-7.519655-4.7217.447719-8.1802 4.527345-7.7244 9.122415.2537 2.56714 1.7035 4.71424 3.7071 6.09374.779.5393 1.2811 1.4209 1.2811 2.4217 0 .612-.1738 1.1826-.5021 1.6542-1.5439 2.2385-1.1357 3.4902.7738 3.4902 7.3278-.0013 12.5362-8.1693 11.837-15.2626zm-6.6492 1.61655c-1.8117 0-3.2847-1.42968-3.2847-3.18795 0-1.7683 1.473-3.20175 3.2847-3.20175s3.2808 1.43471 3.2808 3.20175c-.0012 1.75827-1.4691 3.18795-3.2808 3.18795z"/></g></svg>